HIERARCHY
ROOT Hips
{
	OFFSET 0.00 0.00 0.00
	CHANNELS 6 Xposition Yposition Zposition Xrotation Yrotation Zrotation
	JOINT Spine
	{
		OFFSET 0.00000 0.84964 1.27446
		CHANNELS 3 Xrotation Yrotation Zrotation
		JOINT Spine1
		{
			OFFSET 0.00000 0.29508 1.67346
			CHANNELS 3 Xrotation Yrotation Zrotation
			JOINT Spine2
			{
				OFFSET 0.00000 0.14810 1.69281
				CHANNELS 3 Xrotation Yrotation Zrotation
				JOINT Spine3
				{
					OFFSET 0.00000 0.00000 1.69928
					CHANNELS 3 Xrotation Yrotation Zrotation
					JOINT Neck
					{
						OFFSET 0.00000 -0.63723 4.46061
						CHANNELS 3 Xrotation Yrotation Zrotation
						JOINT Head
						{
							OFFSET 0.00000 -0.40573 2.30101
							CHANNELS 3 Xrotation Yrotation Zrotation
							End Site
							{
								OFFSET 0.00000 0.00000 2.75071
							}
						}
					}
					JOINT RightShoulder
					{
						OFFSET -0.72014 -1.20022 3.88874
						CHANNELS 3 Xrotation Yrotation Zrotation
						JOINT RightArm
						{
							OFFSET -3.57668 0.00000 0.00000
							CHANNELS 3 Xrotation Yrotation Zrotation
							JOINT RightForeArm
							{
								OFFSET -5.92485 0.00000 0.00000
								CHANNELS 3 Xrotation Yrotation Zrotation
								JOINT RightHand
								{
									OFFSET -6.63013 0.00000 0.00000
									CHANNELS 3 Xrotation Yrotation Zrotation
									JOINT RightHandEnd
									{
										OFFSET -1.65321 0.00000 0.00000
										CHANNELS 3 Xrotation Yrotation Zrotation
										End Site
										{
											OFFSET -1.65321 0.00000 0.00000
										}
									}
									JOINT RightHandThumb1
									{
										OFFSET -0.66129 -1.10214 -0.44086
										CHANNELS 3 Yrotation Xrotation Zrotation
										End Site
										{
											OFFSET -1.59688 -0.42788 0.00000
										}
									}
								}
							}
						}
					}
					JOINT LeftShoulder
					{
						OFFSET 0.72014 -1.20022 3.88874
						CHANNELS 3 Xrotation Yrotation Zrotation
						JOINT LeftArm
						{
							OFFSET 3.57668 0.00000 0.00000
							CHANNELS 3 Xrotation Yrotation Zrotation
							JOINT LeftForeArm
							{
								OFFSET 5.92485 0.00000 0.00000
								CHANNELS 3 Xrotation Yrotation Zrotation
								JOINT LeftHand
								{
									OFFSET 6.63013 0.00000 0.00000
									CHANNELS 3 Xrotation Yrotation Zrotation
									JOINT LeftHandEnd
									{
										OFFSET 1.65321 0.00000 0.00000
										CHANNELS 3 Xrotation Yrotation Zrotation
										End Site
										{
											OFFSET 1.65321 0.00000 0.00000
										}
									}
									JOINT LeftHandThumb1
									{
										OFFSET 0.66129 -1.10214 -0.44086
										CHANNELS 3 Yrotation Xrotation Zrotation
										End Site
										{
											OFFSET 1.59688 -0.42788 0.00000
										}
									}
								}
							}
						}
					}
				}
			}
		}
	}
	JOINT RightUpLeg
	{
		OFFSET -2.13640 0.00000 -0.62412
		CHANNELS 3 Xrotation Yrotation Zrotation
		JOINT RightLeg
		{
			OFFSET 0.00000 0.00000 -11.49360
			CHANNELS 3 Xrotation Yrotation Zrotation
			JOINT RightFoot
			{
				OFFSET 0.00000 0.00000 -8.79036
				CHANNELS 3 Xrotation Yrotation Zrotation
				JOINT RightToeBase
				{
					OFFSET 0.00000 -3.94625 -1.43632
					CHANNELS 3 Xrotation Yrotation Zrotation
					End Site
					{
						OFFSET 0.00000 -1.72833 -0.00000
					}
				}
			}
		}
	}
	JOINT LeftUpLeg
	{
		OFFSET 2.13640 0.00000 -0.62412
		CHANNELS 3 Xrotation Yrotation Zrotation
		JOINT LeftLeg
		{
			OFFSET 0.00000 0.00000 -11.49360
			CHANNELS 3 Xrotation Yrotation Zrotation
			JOINT LeftFoot
			{
				OFFSET 0.00000 0.00000 -8.79036
				CHANNELS 3 Xrotation Yrotation Zrotation
				JOINT LeftToeBase
				{
					OFFSET 0.00000 -3.94625 -1.43632
					CHANNELS 3 Xrotation Yrotation Zrotation
					End Site
					{
						OFFSET 0.00000 -1.72833 -0.00000
					}
				}
			}
		}
	}
}
MOTION
Frames: 12
Frame Time: 0.008342
 -6.6263 105.8149 19.7189 8.2151 9.5152 31.2164 19.0822 -2.9322 1.4506 5.6865 -1.2340 -0.3098 3.3045 -2.5640 0.9969 -0.1817 2.4351 -2.0095 -18.6344 6.9173 2.6344 -11.9892 -9.9901 -1.7947 154.5288 -17.4262 -177.4204 -73.1463 24.2821 27.3150 0.0000 0.0000 26.1342 48.4864 -32.8893 13.8950 0.0000 -0.0000 -0.0000 -0.0000 -0.0000 0.0000 137.4251 28.0690 -169.0651 157.0028 35.5113 3.9959 -0.0000 0.0000 35.9377 17.9966 -40.8468 37.5517 -0.0000 -0.0000 -0.0000 -0.0000 -0.0000 -0.0000 -53.3377 9.9716 -21.2099 66.1844 0.0000 0.0000 -39.4071 17.3851 1.0297 -2.7641 0.0000 -0.0000 -12.3549 -15.0542 -8.3686 51.2047 0.0000 0.0000 -50.5955 4.1716 6.8379 -7.2867 0.0000 -0.0000
 -6.5973 105.6503 19.6889 8.4361 9.8097 29.7841 18.9438 -3.0829 1.4386 5.6058 -1.3143 -0.3517 3.3631 -2.6706 0.6244 -0.0496 2.5436 -2.0534 -18.7952 6.6181 2.3951 -12.0471 -9.8225 -1.7118 154.3896 -17.1144 -176.6333 -69.1556 25.3586 25.7567 0.0000 0.0000 26.5062 47.0641 -32.7264 13.5781 -0.0000 0.0000 -0.0000 -0.0000 -0.0000 0.0000 136.8818 28.2622 -168.6757 157.9521 35.8085 3.8012 -0.0000 0.0000 36.3111 18.3532 -41.0440 37.3252 0.0000 -0.0000 -0.0000 0.0000 0.0000 0.0000 -54.2350 10.0195 -21.3499 66.0265 0.0000 0.0000 -39.6070 16.7855 1.0030 -2.8613 0.0000 -0.0000 -11.4436 -15.4522 -7.3908 50.6497 0.0000 0.0000 -50.7298 3.6491 7.5817 -7.0348 0.0000 -0.0000
 -6.5640 105.4641 19.6686 8.7375 10.1004 28.4979 18.7511 -3.3187 1.4210 5.5185 -1.4205 -0.4049 3.3525 -2.7580 0.1866 0.0708 2.7160 -2.1300 -18.9848 6.3248 2.1733 -12.0259 -9.6643 -1.5549 154.0965 -16.7533 -175.8939 -64.3427 26.8564 23.7126 0.0000 0.0000 26.9877 45.2770 -32.4585 13.1845 -0.0000 -0.0000 -0.0000 -0.0000 0.0000 -0.0000 136.3453 28.4249 -168.2105 158.6992 36.0471 3.6292 -0.0000 0.0000 37.0594 18.6831 -41.3663 37.1752 0.0000 -0.0000 -0.0000 -0.0000 -0.0000 -0.0000 -55.0244 10.2595 -21.7361 65.6609 0.0000 0.0000 -39.5746 16.1398 0.9732 -2.9938 0.0000 -0.0000 -10.4888 -15.7888 -6.4633 49.8381 0.0000 0.0000 -50.6989 3.1707 8.3039 -6.7595 0.0000 -0.0000
 -6.5259 105.2560 19.6565 9.1100 10.3762 27.3578 18.5024 -3.6298 1.3990 5.4284 -1.5495 -0.4698 3.2846 -2.8344 -0.3170 0.1748 2.9368 -2.2377 -19.2128 6.0468 1.9793 -11.9409 -9.5120 -1.3276 153.6655 -16.3602 -175.1996 -58.6500 28.6764 21.1037 0.0000 0.0000 27.5832 43.1940 -32.0833 12.7143 -0.0000 -0.0000 -0.0000 -0.0000 -0.0000 -0.0000 135.8241 28.5485 -167.7127 159.2426 36.2114 3.4839 -0.0000 0.0000 38.1541 19.0116 -41.7263 37.1098 0.0000 -0.0000 -0.0000 -0.0000 -0.0000 0.0000 -55.6707 10.7030 -22.3994 65.1054 0.0000 0.0000 -39.2722 15.4197 1.0296 -3.1692 0.0000 -0.0000 -9.4892 -16.0675 -5.5928 48.7916 0.0000 0.0000 -50.5080 2.8088 8.9723 -6.4844 0.0000 -0.0000
 -6.4815 105.0250 19.6514 9.4782 10.5819 26.3621 18.2859 -3.9882 1.3735 5.3324 -1.6956 -0.5432 3.1640 -2.9111 -0.8754 0.2541 3.1852 -2.3605 -19.4716 5.8222 1.8098 -11.8126 -9.3820 -1.0409 153.0795 -15.8680 -174.5394 -52.0812 30.7840 17.9876 0.0000 0.0000 28.1770 40.8277 -31.5140 12.2689 0.0000 -0.0000 0.0000 -0.0000 -0.0000 -0.0000 135.3437 28.6145 -167.2220 159.6298 36.2858 3.3607 -0.0000 0.0000 39.5471 19.2881 -42.0087 37.0833 0.0000 0.0000 -0.0000 0.0000 -0.0000 0.0000 -56.0662 11.3583 -23.3594 64.4031 0.0000 0.0000 -38.6913 14.5938 1.2759 -3.3658 0.0000 -0.0000 -8.3471 -16.2781 -4.7722 47.5173 0.0000 0.0000 -50.1607 2.6160 9.5603 -6.2329 0.0000 -0.0000
 -6.4317 104.7722 19.6513 9.8989 10.7837 25.4922 18.0022 -4.4194 1.3511 5.2347 -1.8530 -0.6249 2.9968 -2.9949 -1.4861 0.3149 3.4528 -2.5191 -19.7659 5.6356 1.7144 -11.6532 -9.2453 -0.7128 152.3745 -15.4971 -173.9506 -44.6932 32.7052 14.0410 0.0000 0.0000 29.0568 38.3053 -30.8927 11.5978 0.0000 0.0000 0.0000 0.0000 -0.0000 -0.0000 134.9020 28.6227 -166.7785 159.8964 36.2944 3.2862 -0.0000 0.0000 41.1450 19.5167 -42.1458 37.0795 0.0000 0.0000 -0.0000 0.0000 0.0000 0.0000 -56.2754 12.1924 -24.6677 63.5881 0.0000 0.0000 -37.8162 13.6459 1.7947 -3.5798 0.0000 -0.0000 -7.1792 -16.4666 -4.0016 46.0805 0.0000 0.0000 -49.6760 2.6371 10.0315 -6.0315 0.0000 -0.0000
 -6.3763 104.4979 19.6542 10.3244 10.9500 24.7271 17.7038 -4.8935 1.3180 5.1395 -2.0103 -0.7141 2.7950 -3.0947 -2.1221 0.3436 3.7095 -2.6673 -20.0786 5.5480 1.6529 -11.4982 -9.1417 -0.3526 151.5192 -14.9669 -173.3980 -36.6105 34.6240 9.6699 0.0000 0.0000 29.8683 35.6911 -30.1045 11.0856 0.0000 -0.0000 0.0000 -0.0000 -0.0000 0.0000 134.5209 28.5635 -166.4320 160.1267 36.2144 3.2236 -0.0000 0.0000 42.9026 19.6591 -42.1005 37.0209 -0.0000 0.0000 -0.0000 0.0000 -0.0000 0.0000 -56.2435 13.1850 -26.3356 62.7307 0.0000 0.0000 -36.6703 12.5759 2.6722 -3.7606 0.0000 -0.0000 -5.9362 -16.6290 -3.2624 44.5220 0.0000 0.0000 -49.0593 2.8691 10.3739 -5.9142 0.0000 -0.0000
 -6.3155 104.2025 19.6585 10.7511 11.1030 24.0390 17.3839 -5.4198 1.2825 5.0436 -2.1668 -0.8072 2.5520 -3.2103 -2.7702 0.3452 3.9445 -2.8211 -20.3955 5.5568 1.6741 -11.3599 -9.0385 0.0079 150.6204 -14.4956 -172.8960 -28.0451 36.0397 4.7546 0.0000 0.0000 30.8808 33.1580 -29.2679 10.5063 0.0000 -0.0000 0.0000 -0.0000 0.0000 0.0000 134.1848 28.4322 -166.2195 160.3698 36.0914 3.1891 -0.0000 0.0000 44.7106 19.6549 -41.9718 36.8343 -0.0000 -0.0000 0.0000 -0.0000 -0.0000 0.0000 -55.9764 14.2851 -28.3773 61.8932 0.0000 0.0000 -35.2817 11.4080 3.9569 -3.8782 0.0000 -0.0000 -4.6472 -16.7917 -2.5318 42.9081 0.0000 0.0000 -48.3127 3.2836 10.5776 -5.8910 0.0000 -0.0000
 -6.2494 103.8872 19.6623 11.1700 11.2196 23.3910 17.0620 -5.9597 1.2313 4.9513 -2.3158 -0.9010 2.2712 -3.3464 -3.4001 0.3188 4.1400 -2.9613 -20.7088 5.6907 1.7666 -11.2658 -8.9489 0.3514 149.6540 -13.9929 -172.4433 -19.3703 36.9482 -0.3606 0.0000 0.0000 31.9951 30.8855 -28.4510 10.0444 0.0000 -0.0000 0.0000 -0.0000 -0.0000 0.0000 133.8902 28.2314 -166.1765 160.6949 35.9323 3.1645 -0.0000 0.0000 46.5064 19.5344 -41.7667 36.5818 0.0000 -0.0000 -0.0000 -0.0000 -0.0000 -0.0000 -55.4839 15.4567 -30.7483 61.1567 0.0000 0.0000 -33.7016 10.2001 5.6697 -3.8851 0.0000 -0.0000 -3.3138 -16.9299 -1.7877 41.3054 0.0000 0.0000 -47.4272 3.8083 10.6580 -5.9868 0.0000 -0.0000
 -6.1787 103.5534 19.6645 11.5794 11.3041 22.7433 16.7486 -6.5019 1.1662 4.8638 -2.4584 -0.9912 1.9455 -3.5007 -3.9856 0.2679 4.2894 -3.0910 -21.0088 5.9609 1.9463 -11.2325 -8.8667 0.6505 148.6767 -13.5189 -172.0348 -10.9765 37.2050 -5.4185 0.0000 0.0000 33.2666 29.0010 -27.7308 9.6885 0.0000 -0.0000 0.0000 -0.0000 0.0000 0.0000 133.6058 27.9618 -166.3230 161.1141 35.7646 3.1681 -0.0000 0.0000 48.2075 19.2634 -41.6320 36.2221 0.0000 -0.0000 0.0000 0.0000 0.0000 0.0000 -54.7924 16.6372 -33.3870 60.5821 0.0000 0.0000 -31.9947 9.0364 7.7844 -3.7539 0.0000 -0.0000 -1.9633 -17.0407 -1.0088 39.7940 0.0000 0.0000 -46.3934 4.3511 10.6396 -6.2005 0.0000 -0.0000
 -6.1041 103.2025 19.6641 11.9842 11.3442 22.0509 16.4566 -7.0183 1.0800 4.7844 -2.5954 -1.0769 1.5723 -3.6700 -4.4971 0.2003 4.3966 -3.2056 -21.3031 6.3545 2.2149 -11.2713 -8.7820 0.8926 147.7062 -13.0872 -171.6734 -3.1438 36.8185 -10.1639 0.0000 0.0000 34.6961 27.5684 -27.1522 9.4182 0.0000 -0.0000 0.0000 -0.0000 0.0000 0.0000 133.2931 27.6402 -166.6648 161.6422 35.6104 3.2056 -0.0000 0.0000 49.7720 18.8703 -41.6879 35.7984 0.0000 0.0000 0.0000 0.0000 -0.0000 0.0000 -53.9467 17.7675 -36.1775 60.2206 0.0000 0.0000 -30.2531 8.0177 10.2294 -3.4712 0.0000 -0.0000 -0.6238 -17.0949 -0.1851 38.4552 0.0000 0.0000 -45.2002 4.8001 10.5657 -6.5358 0.0000 -0.0000
 -6.0267 102.8363 19.6611 12.3892 11.3457 21.2701 16.1979 -7.4994 0.9789 4.7167 -2.7312 -1.1546 1.1491 -3.8495 -4.9062 0.1226 4.4672 -3.3084 -21.6011 6.8640 2.5686 -11.3943 -8.6923 1.0639 146.7606 -12.6869 -171.3535 3.9458 35.8753 -14.3929 0.0000 0.0000 36.2319 26.6172 -26.7101 9.2665 0.0000 0.0000 -0.0000 0.0000 -0.0000 0.0000 132.9044 27.2893 -167.1943 162.2681 35.4724 3.2891 -0.0000 0.0000 51.1576 18.3613 -42.0031 35.3639 -0.0000 -0.0000 -0.0000 0.0000 0.0000 0.0000 -52.9986 18.7724 -38.9848 60.0921 0.0000 0.0000 -28.5942 7.2394 12.8919 -3.0521 0.0000 -0.0000 0.6654 -17.0805 0.6825 37.3722 0.0000 0.0000 -43.8417 5.0479 10.4874 -6.9777 0.0000 -0.0000
